<svg xmlns="http://www.w3.org/2000/svg" data-name="Layer 1" viewBox="0 0 1292.73 725.47"><path d="M229.07 58.14H46.37l.78 457.57 333.13.79.09-145.46H228.02l1.05-312.9zm568.55-.79H422.88v458.36l172.77-.78V387.12h201.97V260.89l-201.97-.79v-56.01H798.4l-.78-146.74zm434.49 138.26-.59-134.31s-33.53-15.78-177.51-21.3c-9.07-.39-112.42-7.89-171.59 40.83-55.23 46.74-44.38 130.76-44.38 130.76s-1.77 60.35 38.46 104.14c31.36 33.73 117.75 27.22 117.75 27.22s53.25-2.96 62.13 7.69c18.93 19.53 3.55 35.5 3.55 35.5s-4.73 18.34-85.2 12.43c-80.47-5.92-115.97-9.47-115.97-9.47v115.97s54.44 18.93 169.81 18.34c115.38-.59 150.29-23.67 150.29-23.67s69.82-23.08 67.45-141.41c0-103.55-84.61-111.24-84.61-111.24s-68.64-3.55-105.32-4.73c-37.87 3.55-52.07-44.97-10.65-53.25 57.99-4.73 118.93.59 118.93.59l67.45 5.92Z" style="stroke-width:0;fill:#00539f"/><path d="m1243.94 551.8-1197.57.6v133.72h1197.57V551.8" style="stroke-width:0;fill:#7e91c5"/></svg>